<svg width="48" height="51" viewBox="0 0 48 51" fill="none" xmlns="http://www.w3.org/2000/svg">
<path d="M29.3801 50.0896C29.2908 50.0896 29.2462 50.1354 29.2462 50.2271V50.3645C29.2462 50.4562 29.2908 50.502 29.3801 50.502H47.0486C47.1825 50.502 47.2494 50.4562 47.2494 50.3645V50.2271C47.2494 50.1354 47.1825 50.0896 47.0486 50.0896H44.9739C43.5908 50.0896 42.6092 49.8375 42.0291 49.3335C41.4937 48.8294 41.0475 48.0047 40.6906 46.8591C38.4597 39.8022 36.385 32.7453 34.4665 25.6886C32.5479 18.6317 30.6517 11.529 28.7778 4.38051C28.51 3.41819 28.51 2.61638 28.7778 1.97484C29.0455 1.33329 29.6701 1.01252 30.6517 1.01252H34.6673C34.8011 1.01252 34.868 0.943782 34.868 0.806308V0.737572C34.868 0.645922 34.8011 0.600098 34.6673 0.600098H7.89675C7.7182 0.600098 7.62903 0.645922 7.62903 0.737572V0.806308C7.62903 0.943782 7.7182 1.01252 7.89675 1.01252H12.8493C13.7416 1.01252 14.1878 1.42494 14.1878 2.24978C14.1878 2.61638 14.1432 2.98298 14.0539 3.34945C13.9647 3.67023 13.8085 4.15138 13.5855 4.79293C13.1839 5.84689 12.6931 7.10707 12.1131 8.57346C11.5777 9.9939 11.0199 11.4603 10.4399 12.9725C9.85985 14.4847 9.30215 15.951 8.7667 17.3715C8.23138 18.7921 7.76284 20.0294 7.36131 21.0832C6.51362 23.3286 5.64356 25.5282 4.75123 27.6818C3.90343 29.8356 3.1449 31.8976 2.47565 33.868C1.80641 35.7927 1.2487 37.6255 0.80254 39.3669C0.401016 41.0624 0.200195 42.6204 0.200195 44.0409C0.200195 46.4696 0.780278 48.2337 1.94033 49.3335C3.10038 50.4333 4.55041 50.9832 6.29054 50.9832C7.7182 50.9832 9.01216 50.5937 10.1722 49.8146C11.3323 48.9898 12.4254 47.9818 13.4517 46.7903C14.5224 45.5531 15.5263 44.2471 16.4633 42.8723C17.4449 41.4519 18.4487 40.1459 19.475 38.9544C20.5011 37.7172 21.572 36.7092 22.6874 35.9301C23.8475 35.1053 25.0968 34.6929 26.4353 34.6929C28.5769 34.6929 30.2278 35.3344 31.3878 36.6175C32.5479 37.9005 33.3957 39.3669 33.931 41.0166C34.288 42.0247 34.5557 42.9869 34.7342 43.9034C34.9573 44.8199 35.1804 45.6447 35.4034 46.3779C35.4927 46.7903 35.515 47.2257 35.4703 47.6839C35.4703 48.1422 35.3365 48.5545 35.0688 48.9211C34.8457 49.2418 34.4442 49.5168 33.8641 49.7459C33.3287 49.975 32.5925 50.0896 31.6556 50.0896H29.3801ZM11.5777 22.183C14.1209 22.183 15.9725 22.7787 17.1325 23.9702C18.2926 25.1158 18.8726 26.9945 18.8726 29.6065V36.755C17.891 37.4881 16.9318 38.2671 15.9948 39.0919C15.0579 39.9168 14.1432 40.6729 13.2508 41.3602C12.3585 42.0476 11.4884 42.6203 10.6408 43.0785C9.79295 43.491 8.94526 43.6972 8.09746 43.6972C6.84825 43.6972 5.71046 43.3077 4.68421 42.5288C3.65808 41.7039 3.1449 40.3521 3.1449 38.4733C3.1449 37.3277 3.32346 36.0218 3.68034 34.5554C4.08187 33.0432 4.52815 31.531 5.01884 30.0189C5.55428 28.5067 6.08972 27.0632 6.62516 25.6886C7.16049 24.3138 7.60666 23.1453 7.96366 22.183H11.5777ZM14.1878 5.54903C14.7232 4.1743 15.3925 3.28084 16.1955 2.86841C17.0433 2.45599 17.9357 2.22687 18.8726 2.18105V14.141C18.8726 16.8446 18.3149 18.7921 17.1995 19.9835C16.084 21.1749 14.2101 21.7706 11.5777 21.7706H8.09746C8.76671 19.9835 9.43606 18.1964 10.1053 16.4092C10.7746 14.5764 11.3992 12.9038 11.9792 11.3915C12.5592 9.87934 13.0278 8.59637 13.3846 7.5424C13.7863 6.48844 14.0539 5.82398 14.1878 5.54903ZM30.9194 29.9501C31.0086 30.2709 31.0979 30.6604 31.187 31.1187C31.2763 31.5768 31.3209 32.0121 31.3209 32.4246C31.3656 32.837 31.3432 33.2265 31.254 33.5931C31.2094 33.9139 31.0755 34.143 30.8524 34.2805C30.7632 34.3263 30.6071 34.3492 30.384 34.3492C29.9378 34.3492 29.4024 34.2575 28.7778 34.0742C28.1977 33.8451 27.3946 33.7306 26.3684 33.7306C25.1191 33.7306 23.9144 34.0055 22.7543 34.5554C21.5943 35.0595 20.4342 35.701 19.2742 36.48V29.6065C19.2742 26.9486 19.8096 25.047 20.8804 23.9014C21.9959 22.7558 23.8698 22.183 26.5022 22.183H28.8447C29.2015 23.4661 29.5362 24.7721 29.8485 26.1009C30.2055 27.384 30.5624 28.6671 30.9194 29.9501ZM26.5022 21.7706C23.959 21.7706 22.1074 21.1519 20.9474 19.9148C19.8319 18.6775 19.2742 16.7529 19.2742 14.141V2.18105C20.8359 2.22687 21.9959 2.57055 22.7543 3.2121C23.5128 3.85352 24.0483 4.72419 24.3606 5.82398C24.8513 7.56532 25.4761 9.83351 26.2346 12.6288C26.993 15.424 27.8184 18.4713 28.7107 21.7706H26.5022Z" fill="#212529"/>
</svg>
