<svg width="188" height="30" viewBox="0 0 188 30" fill="none" xmlns="http://www.w3.org/2000/svg">
<path d="M20 0.68V7.72H8.88V11.64H16.88V18.32H8.88V29H2.98023e-08V0.68H20ZM42.3678 24.72H32.9278L31.5278 29H22.2078L32.5678 0.68H42.8078L53.1278 29H43.7678L42.3678 24.72ZM40.2078 18.04L37.6478 10.16L35.0878 18.04H40.2078ZM67.4253 29.28C64.0386 29.28 61.2386 28.4933 59.0253 26.92C56.8386 25.32 55.652 22.9867 55.4653 19.92H64.9053C65.0386 21.5467 65.7586 22.36 67.0653 22.36C67.5453 22.36 67.9453 22.2533 68.2653 22.04C68.612 21.8 68.7853 21.44 68.7853 20.96C68.7853 20.2933 68.4253 19.76 67.7053 19.36C66.9853 18.9333 65.8653 18.4533 64.3453 17.92C62.532 17.28 61.0253 16.6533 59.8253 16.04C58.652 15.4267 57.6386 14.5333 56.7853 13.36C55.932 12.1867 55.5186 10.68 55.5453 8.84C55.5453 7 56.012 5.44 56.9453 4.16C57.9053 2.85333 59.1986 1.86667 60.8253 1.2C62.4786 0.533332 64.332 0.199999 66.3853 0.199999C69.852 0.199999 72.5986 0.999999 74.6253 2.6C76.6786 4.2 77.7586 6.45333 77.8653 9.36H68.3053C68.2786 8.56 68.0786 7.98667 67.7053 7.64C67.332 7.29333 66.8786 7.12 66.3453 7.12C65.972 7.12 65.6653 7.25333 65.4253 7.52C65.1853 7.76 65.0653 8.10667 65.0653 8.56C65.0653 9.2 65.412 9.73333 66.1053 10.16C66.8253 10.56 67.9586 11.0533 69.5053 11.64C71.292 12.3067 72.7586 12.9467 73.9053 13.56C75.0786 14.1733 76.092 15.0267 76.9453 16.12C77.7986 17.2133 78.2253 18.5867 78.2253 20.24C78.2253 21.9733 77.7986 23.5333 76.9453 24.92C76.092 26.28 74.852 27.3467 73.2253 28.12C71.5986 28.8933 69.6653 29.28 67.4253 29.28ZM108.745 0.68V29H99.8653V17.96H91.4253V29H82.5453V0.68H91.4253V10.88H99.8653V0.68H108.745ZM122.821 0.68V29H113.941V0.68H122.821ZM141.831 29.28C139.165 29.28 136.711 28.6533 134.471 27.4C132.258 26.1467 130.498 24.4133 129.191 22.2C127.885 19.9867 127.231 17.4933 127.231 14.72C127.231 11.9467 127.885 9.45333 129.191 7.24C130.498 5.02667 132.258 3.30667 134.471 2.08C136.711 0.826665 139.165 0.199999 141.831 0.199999C144.498 0.199999 146.938 0.826665 149.151 2.08C151.365 3.30667 153.111 5.02667 154.391 7.24C155.698 9.45333 156.351 11.9467 156.351 14.72C156.351 17.4933 155.698 19.9867 154.391 22.2C153.111 24.4133 151.351 26.1467 149.111 27.4C146.898 28.6533 144.471 29.28 141.831 29.28ZM141.831 21C143.591 21 144.951 20.44 145.911 19.32C146.871 18.1733 147.351 16.64 147.351 14.72C147.351 12.7733 146.871 11.24 145.911 10.12C144.951 8.97333 143.591 8.4 141.831 8.4C140.045 8.4 138.671 8.97333 137.711 10.12C136.751 11.24 136.271 12.7733 136.271 14.72C136.271 16.64 136.751 18.1733 137.711 19.32C138.671 20.44 140.045 21 141.831 21ZM187.915 29H179.035L169.635 14.76V29H160.755V0.68H169.635L179.035 15.16V0.68H187.915V29Z" fill="white"/>
</svg>
